# xmcd CD database file
#
# Track frame offsets:
#	150
#	11154
#	32298
#	52334
#	70246
#	92008
#	114165
#	136806
#	156599
#	178929
#
# Disc length: 2456 seconds
#
# Revision: 5
# Processed by: cddbd v1.5PL3 Copyright (c) Steve Scherf et al.
# Submitted via: CDex 1.51
#
DISCID=8509960a
DTITLE=一青窈 - 月天心
DYEAR=2003
DGENRE=JPop
TTITLE0=あこるでぃおん
TTITLE1=もらい泣き
TTITLE2=sunny side up
TTITLE3=イマドコ
TTITLE4=犬
TTITLE5=月天心
TTITLE6=ジャングルジム
TTITLE7=心変わり
TTITLE8=アリガ十々
TTITLE9=望春風
EXTD=YEAR: 2003
EXTT0=
EXTT1=
EXTT2=
EXTT3=
EXTT4=
EXTT5=
EXTT6=
EXTT7=
EXTT8=
EXTT9=
PLAYORDER=
